<?xml version="1.0" encoding="utf-8"?>
<!-- Generator: Adobe Illustrator 27.0.0, SVG Export Plug-In . SVG Version: 6.00 Build 0)  -->
<svg version="1.1" id="Layer_1" xmlns="http://www.w3.org/2000/svg" xmlns:xlink="http://www.w3.org/1999/xlink" x="0px" y="0px"
	 viewBox="0 0 299.5 380" style="enable-background:new 0 0 299.5 380;" xml:space="preserve">
<style type="text/css">
	.st0{fill:#002B49;}
	.st1{fill:none;stroke:#FFFFFF;stroke-width:11;stroke-miterlimit:10;}
	.st2{fill:#1C95A5;}
	.st3{fill:#FFFFFF;}
	.st4{fill:none;stroke:#FFFFFF;stroke-width:8;stroke-miterlimit:10;}
	.st5{fill:none;stroke:#FFFFFF;stroke-width:9;stroke-miterlimit:10;}
	.st6{fill:none;stroke:#606060;stroke-width:11;stroke-miterlimit:10;}
</style>
<rect x="47.3" y="46.3" class="st0" width="207.6" height="207.6"/>
<line class="st1" x1="242" y1="94.5" x2="219.6" y2="118.2"/>
<line class="st1" x1="224.4" y1="76.9" x2="202" y2="100.6"/>
<line class="st1" x1="206.6" y1="60.4" x2="184.2" y2="84"/>
<polygon class="st2" points="250.1,149 151.5,251.4 52.2,146.5 152.4,48.8 "/>
<circle class="st3" cx="184.2" cy="120.8" r="13.6"/>
<circle class="st2" cx="184.2" cy="128.8" r="5.4"/>
<circle class="st3" cx="123.5" cy="120.8" r="13.6"/>
<circle class="st2" cx="123.5" cy="128.8" r="5.4"/>
<path class="st3" d="M189.6,149.1c-10.2,39.2-23.9,77.7-37.9,115.7c-10.3-29.4-20.5-59.6-29-89.6c-2.4-8.7-4.9-17.5-6.9-26.4
	c3.9,8.2,7.5,16.6,11.1,24.9c8.7,20.7,16.9,42.2,24.6,63.3l4.5,12.8l-8.5-0.1C160.4,215.9,173.8,181.8,189.6,149.1L189.6,149.1z"/>
<g>
	<path class="st3" d="M3.7,377.4v-8.2v-3.4v-33v-7.7v-0.9c0-2,0.7-3.7,2.2-5.2c1.4-1.4,3.2-2.2,5.2-2.2h40.6c2,0,3.7,0.7,5.2,2.2
		c1.4,1.4,2.2,3.2,2.2,5.2v0.9v37.2v6.9v0.8v7.4h-7.4H47h-4.6v-8.2v-12.7H20.3v12.7v8.2h-6.5H11L3.7,377.4L3.7,377.4z M20.3,332.8
		v15.4h22.1v-23.1H20.3V332.8z"/>
	<path class="st3" d="M116.2,316.9h3.9h22.1h3.8h10.5h2.3H181h2.3h6.9c2,0,3.7,0.7,5.2,2.2c1.4,1.4,2.2,3.2,2.2,5.3v0.8v52.2H181
		v-52.2h-22.2v52.2h-16.6v-52.2h-22.1v52.2h-16.6v-52.2v-0.8c0-2.1,0.7-3.8,2.2-5.3c1.4-1.4,3.2-2.2,5.2-2.2H116.2z"/>
	<path class="st3" d="M280.6,358.7h-22.1v18.6h-16.6v-60.5h48c2,0,3.7,0.7,5.2,2.2c1.4,1.4,2.2,3.2,2.2,5.3v25
		c0,2.6-0.9,4.7-2.6,6.5s-3.9,2.7-6.4,2.9h1.7c2,0,3.7,0.7,5.1,2.1s2.1,3.1,2.1,5.1v11.4h-16.6L280.6,358.7L280.6,358.7z
		 M258.5,350.6h22.1v-25.4h-22.1V350.6z"/>
</g>
<path class="st3" d="M132.5,11.2h-7.3l0,0v3.9v9.4c0,0.9,0.3,1.6,1,2.3c0.6,0.6,1.4,1,2.3,1h3h1h9.7h1h4.6h1.7h9.7h1.7h2.3
	c0.9,0,1.6-0.3,2.3-1c0.6-0.6,1-1.4,1-2.3v-9.4v-3.9l0,0h-7.3V22h-9.7V11.2h-7.3V22h-9.7V11.2z"/>
<path class="st3" d="M12.2,138v-7.3l0,0h3.9h9.4c0.9,0,1.6,0.3,2.3,1c0.6,0.6,1,1.4,1,2.3v3v1v9.7v1v4.6v1.7v9.7v1.7v2.3
	c0,0.9-0.3,1.6-1,2.3c-0.6,0.6-1.4,1-2.3,1h-9.4h-3.9l0,0v-7.3H23V155H12.2v-7.3H23V138H12.2z"/>
<path class="st3" d="M290.1,136.7v-7.3l0,0h-3.9h-9.4c-0.9,0-1.6,0.3-2.3,1c-0.6,0.6-1,1.4-1,2.3v3v1v9.7v1v4.6v1.7v9.7v1.7v2.3
	c0,0.9,0.3,1.6,1,2.3c0.6,0.6,1.4,1,2.3,1h9.4h3.9l0,0v-7.3h-10.8v-9.7h10.8v-7.3h-10.8v-9.7H290.1z"/>
<polyline class="st4" points="159.2,7.4 293.7,7.7 293.7,136.7 "/>
<polyline class="st4" points="132.5,7.7 8.7,7.7 8.7,138 "/>
<g>
	<polyline class="st4" points="129.2,292.5 8.7,292.5 8.7,164.7 	"/>
	<polyline class="st4" points="173.8,292.5 293.7,292.5 293.7,163.4 	"/>
</g>
<polyline class="st5" points="173.8,258.1 259.1,258.1 259.1,42.3 43.3,42.3 43.3,258.1 129.2,258.1 "/>
<g>
	<path class="st3" d="M177.1,135.4l10.1,9.7l22.9-23.8l7.6,7.3l-22.9,23.8l-0.4,0.4c-0.9,0.9-2,1.4-3.3,1.5s-2.4-0.4-3.3-1.3
		l-2.4-2.3l-11.9-11.4l-1.7-1.7L167,133l-1.1-1l-10.1-9.7l-1.1-1l-3.1-3c-0.9-0.9-1.4-2-1.4-3.3s0.4-2.4,1.3-3.4l0.4-0.4l22.9-23.8
		l7.5,7.3l-22.9,23.8l10.1,9.7L177.1,135.4z"/>
</g>
<g>
	<path class="st3" d="M137.9,128.9l10.1-9.7l-22.9-23.8l7.5-7.3l22.9,23.8l0.4,0.4c0.9,0.9,1.4,2.1,1.3,3.4c0,1.3-0.5,2.4-1.4,3.3
		l-3.1,3l-1.1,1l-10.1,9.7l-1.1,1l-4.8,4.6l-1.7,1.7l-10.1,9.7l-1.8,1.7l-2.4,2.3c-0.9,0.9-2,1.3-3.3,1.3s-2.4-0.5-3.3-1.5l-0.4-0.4
		l-22.9-23.8l7.6-7.3l22.9,23.8l10.1-9.7L137.9,128.9z"/>
</g>
<path class="st6" d="M82,116.7"/>
<path class="st6" d="M59.6,93.1"/>
<line class="st1" x1="94.9" y1="58.2" x2="118.1" y2="82.3"/>
<line class="st1" x1="77.6" y1="75.5" x2="100.8" y2="99.6"/>
<line class="st1" x1="59.9" y1="92.7" x2="83.2" y2="116.3"/>
<line class="st1" x1="211.8" y1="188.5" x2="236" y2="212.1"/>
<line class="st1" x1="191.3" y1="210" x2="215.6" y2="232.9"/>
<line class="st1" x1="88.5" y1="184.9" x2="64.2" y2="208.5"/>
<line class="st1" x1="107.5" y1="205" x2="83.1" y2="228.6"/>
<polygon class="st3" points="156.3,120.8 152.8,246 149.3,120.8 "/>
</svg>
